<svg width="31" height="26" viewBox="0 0 31 26" fill="none" xmlns="http://www.w3.org/2000/svg">
<path d="M1.3 5.3001e-05C0.584999 5.3001e-05 0 0.585052 0 1.30005C0 2.01505 0.584999 2.60005 1.3 2.60005H4.18469L7.59719 16.25C7.88578 17.407 8.92318 18.2 10.1153 18.2H25.025C26.1975 18.2 27.1933 17.4226 27.5027 16.2903L30.8749 3.90005H9.09998L9.74998 6.50004H27.5027L25.025 15.6H10.1153L6.70279 1.95005C6.56219 1.39015 6.23774 0.89365 5.7814 0.540084C5.32506 0.186518 4.76326 -0.00364744 4.18599 5.3001e-05H1.3ZM23.4 18.2C21.2615 18.2 19.5 19.9615 19.5 22.1C19.5 24.2385 21.2615 26 23.4 26C25.5385 26 27.2999 24.2385 27.2999 22.1C27.2999 19.9615 25.5385 18.2 23.4 18.2ZM11.7 18.2C9.56148 18.2 7.79998 19.9615 7.79998 22.1C7.79998 24.2385 9.56148 26 11.7 26C13.8385 26 15.6 24.2385 15.6 22.1C15.6 19.9615 13.8385 18.2 11.7 18.2ZM11.7 20.8C12.4319 20.8 13 21.3694 13 22.1C13 22.8319 12.4306 23.4 11.7 23.4C10.9681 23.4 10.4 22.8306 10.4 22.1C10.4 21.3681 10.9694 20.8 11.7 20.8ZM23.4 20.8C24.1319 20.8 24.7 21.3694 24.7 22.1C24.7 22.8319 24.1306 23.4 23.4 23.4C22.6681 23.4 22.1 22.8306 22.1 22.1C22.1 21.3681 22.6694 20.8 23.4 20.8Z" fill="#333333"/>
</svg>
