<svg width="24" height="24" viewBox="0 0 24 24" fill="none" xmlns="http://www.w3.org/2000/svg">
<path d="M1.8639 19.5859C2.44185 18.2387 3.28057 17.015 4.33333 15.9829C5.38289 14.9479 6.62619 14.1226 7.99458 13.5528C8.00684 13.5467 8.01909 13.5437 8.03135 13.5377C6.12259 12.1809 4.88175 9.97085 4.88175 7.47739C4.88175 3.34673 8.28258 0 12.48 0C16.6774 0 20.0782 3.34673 20.0782 7.47739C20.0782 9.97085 18.8374 12.1809 16.9287 13.5407C16.9409 13.5467 16.9532 13.5497 16.9654 13.5558C18.338 14.1256 19.5697 14.9427 20.6267 15.9859C21.6784 17.0188 22.517 18.2423 23.0961 19.5889C23.665 20.9073 23.9718 22.3207 23.9999 23.7528C24.0007 23.7849 23.995 23.817 23.9831 23.8469C23.9711 23.8769 23.9532 23.9042 23.9303 23.9272C23.9075 23.9503 23.8802 23.9686 23.8501 23.9811C23.8199 23.9936 23.7875 24 23.7548 24H21.9165C21.7817 24 21.6745 23.8945 21.6714 23.7648C21.6102 21.4372 20.6604 19.2573 18.9814 17.605C17.2442 15.8955 14.9372 14.9548 12.48 14.9548C10.0228 14.9548 7.71578 15.8955 5.9786 17.605C4.29963 19.2573 3.34985 21.4372 3.28857 23.7648C3.28551 23.8975 3.17827 24 3.04347 24H1.20518C1.17247 24 1.14009 23.9936 1.10995 23.9811C1.0798 23.9686 1.0525 23.9503 1.02966 23.9272C1.00682 23.9042 0.988895 23.8769 0.976946 23.8469C0.964994 23.817 0.959259 23.7849 0.960075 23.7528C0.990713 22.3116 1.29403 20.9095 1.8639 19.5859ZM12.48 12.6633C13.8863 12.6633 15.2099 12.1236 16.2056 11.1437C17.2013 10.1638 17.7498 8.86131 17.7498 7.47739C17.7498 6.09347 17.2013 4.79095 16.2056 3.81106C15.2099 2.83116 13.8863 2.29146 12.48 2.29146C11.0737 2.29146 9.75015 2.83116 8.75441 3.81106C7.75867 4.79095 7.21025 6.09347 7.21025 7.47739C7.21025 8.86131 7.75867 10.1638 8.75441 11.1437C9.75015 12.1236 11.0737 12.6633 12.48 12.6633Z" fill="#333333"/>
</svg>
