<svg width="19" height="17" viewBox="0 0 19 17" fill="none" xmlns="http://www.w3.org/2000/svg">
<path d="M0.8 3.58456e-05C0.587827 3.58456e-05 0.384344 0.0895891 0.234315 0.248995C0.0842856 0.4084 0 0.624601 0 0.850034C0 1.07547 0.0842856 1.29167 0.234315 1.45107C0.384344 1.61048 0.587827 1.70003 0.8 1.70003H2.576L4.6752 10.625C4.8536 11.3815 5.4912 11.9 6.2248 11.9H15.4008C16.1232 11.9 16.7368 11.39 16.9264 10.6505L19 2.55003H5.6L6 4.25003H16.9248L15.4 10.2H6.224L4.1256 1.27503C4.03892 0.908879 3.8391 0.584221 3.55814 0.353052C3.27719 0.121883 2.93134 -0.00242499 2.576 3.58456e-05H0.8ZM14.4 11.9C13.084 11.9 12 13.0518 12 14.45C12 15.8483 13.084 17 14.4 17C15.716 17 16.8 15.8483 16.8 14.45C16.8 13.0518 15.716 11.9 14.4 11.9ZM7.2 11.9C5.884 11.9 4.8 13.0518 4.8 14.45C4.8 15.8483 5.884 17 7.2 17C8.516 17 9.6 15.8483 9.6 14.45C9.6 13.0518 8.516 11.9 7.2 11.9ZM7.2 13.6C7.6512 13.6 8 13.9706 8 14.45C8 14.9294 7.6512 15.3 7.2 15.3C6.7488 15.3 6.4 14.9294 6.4 14.45C6.4 13.9706 6.7488 13.6 7.2 13.6ZM14.4 13.6C14.8512 13.6 15.2 13.9706 15.2 14.45C15.2 14.9294 14.8512 15.3 14.4 15.3C13.9488 15.3 13.6 14.9294 13.6 14.45C13.6 13.9706 13.9488 13.6 14.4 13.6Z" fill="white"/>
</svg>
