<svg width="58" height="45" viewBox="0 0 58 45" fill="none" xmlns="http://www.w3.org/2000/svg">
<path d="M18.0558 0L17.3576 0.139285C2.92677 3.36978 0.0691536 17.6217 0.0691536 17.6217L0 17.8284V45H58V31.5209H55.7692C54.5066 31.5209 53.5385 30.5459 53.5385 29.2744C53.5385 28.0028 54.5066 27.0279 55.7692 27.0279H58V16.5681L56.6058 15.9368L18.6827 0.211173L18.0558 0ZM17.777 4.77385L23.9808 7.37083C22.997 7.78418 22.3077 8.36154 22.3077 9.05571C22.3077 10.2913 24.3042 11.3022 26.7692 11.3022C28.4602 11.3022 29.9146 10.8102 30.6731 10.1093L44.4057 15.7953H5.29808C6.641 12.4704 9.96931 6.8092 17.777 4.77385ZM4.46154 20.2883H11.3635C11.232 20.6484 11.1612 21.028 11.1538 21.4116C11.1538 22.3053 11.5064 23.1624 12.1339 23.7944C12.7614 24.4263 13.6125 24.7813 14.5 24.7813C15.3875 24.7813 16.2386 24.4263 16.8661 23.7944C17.4936 23.1624 17.8462 22.3053 17.8462 21.4116C17.8462 21.0252 17.7569 20.6388 17.6365 20.2883H53.5385V23.4469C51.0623 24.4399 49.0769 26.4483 49.0769 29.2744C49.0769 32.1005 51.0623 34.1089 53.5385 35.1018V40.507H26.1424C26.5261 39.8487 26.7692 39.0759 26.7692 38.2604C26.7692 37.0688 26.2992 35.926 25.4625 35.0834C24.6258 34.2408 23.491 33.7674 22.3077 33.7674C21.1244 33.7674 19.9896 34.2408 19.1529 35.0834C18.3162 35.926 17.8462 37.0688 17.8462 38.2604C17.8462 39.0759 18.0915 39.8487 18.473 40.507H4.46154V20.2883ZM36.8077 24.7813C35.9202 24.7813 35.0691 25.1364 34.4416 25.7683C33.8141 26.4003 33.4615 27.2574 33.4615 28.1511C33.4615 29.0448 33.8141 29.902 34.4416 30.5339C35.0691 31.1659 35.9202 31.5209 36.8077 31.5209C37.6951 31.5209 38.5463 31.1659 39.1738 30.5339C39.8013 29.902 40.1538 29.0448 40.1538 28.1511C40.1538 27.2574 39.8013 26.4003 39.1738 25.7683C38.5463 25.1364 37.6951 24.7813 36.8077 24.7813Z" fill="url(#paint0_angular)"/>
<defs>
<radialGradient id="paint0_angular" cx="0" cy="0" r="1" gradientUnits="userSpaceOnUse" gradientTransform="translate(29 22.5) rotate(90) scale(22.5 29)">
<stop stop-color="#E4CE9F"/>
<stop offset="1" stop-color="#CEA757"/>
</radialGradient>
</defs>
</svg>
