<svg width="43" height="54" viewBox="0 0 43 54" fill="none" xmlns="http://www.w3.org/2000/svg">
<path fill-rule="evenodd" clip-rule="evenodd" d="M17.0913 5.03476C17.3155 1.82308 20.3744 -0.660392 23.6713 0.157126L24.5714 0.383833C26.1681 0.782288 27.5855 1.95017 28.0614 3.69856C28.8201 6.50148 29.8995 12.3237 28.2752 19.1902C28.783 19.1203 29.2924 19.0619 29.8029 19.015C32.2618 18.7917 35.5586 18.7677 38.4796 19.7364C40.266 20.3306 41.9075 22.0756 42.618 24.109C43.2525 25.9364 43.1697 28.1005 41.811 30.0618C42.011 30.4706 42.1662 30.8931 42.2869 31.3087C42.5524 32.2361 42.6766 33.2563 42.6766 34.249C42.6766 35.2417 42.5524 36.2619 42.2869 37.1893C42.1524 37.6531 41.9765 38.1271 41.7351 38.5771C42.3179 39.9064 42.1041 41.3903 41.7248 42.5204C41.3364 43.6363 40.768 44.6816 40.0418 45.6153C40.2281 46.1374 40.3039 46.687 40.3039 47.2125C40.3039 48.2602 39.997 49.3594 39.4314 50.3452C38.2796 52.3581 35.9932 54 32.7618 54V50.565C34.7034 50.565 35.869 49.6307 36.438 48.6415C36.6966 48.2081 36.8402 47.7164 36.8553 47.2125C36.8553 46.8003 36.7346 46.6458 36.7174 46.6286L35.4966 45.4126L36.7139 44.1966C37.4105 43.5062 38.1175 42.4414 38.4555 41.4349C38.8141 40.3632 38.6038 39.9201 38.4382 39.7587L37.2209 38.5427L38.4382 37.3267C38.5865 37.1825 38.8003 36.8458 38.9693 36.2447C39.1349 35.6711 39.228 34.9738 39.228 34.249C39.228 33.5243 39.1349 32.827 38.9693 32.2533C38.7969 31.6556 38.5865 31.3156 38.4382 31.1713L37.2209 29.9553L38.4382 28.7394C39.6556 27.5303 39.7246 26.2902 39.359 25.2357C38.9383 24.0335 37.9934 23.1988 37.3899 22.9961C35.1379 22.2507 32.3997 22.2267 30.1133 22.4328C28.8447 22.5505 27.5846 22.7466 26.3405 23.0202L26.2922 23.0305L26.2819 23.0339C25.9823 23.108 25.6683 23.1007 25.3726 23.0127C25.0768 22.9247 24.8102 22.7592 24.6006 22.5336C24.391 22.3079 24.246 22.0304 24.1808 21.7299C24.1156 21.4294 24.1326 21.117 24.23 20.8252C25.9654 15.5754 26.139 9.93759 24.73 4.59165C24.6265 4.21037 24.2886 3.85313 23.7368 3.71574L22.8333 3.49246C21.778 3.22797 20.6193 4.02832 20.533 5.27177C20.2744 8.98839 19.7088 12.6569 18.8708 15.0614C18.2708 16.7857 16.7913 19.4169 14.6014 21.8523C12.4047 24.298 9.36298 26.6956 5.58675 27.7192C4.228 28.0902 3.44861 29.0794 3.44861 29.9519V43.6986C3.44861 44.5917 4.20731 45.4676 5.3557 45.5878C9.81475 46.0584 12.0322 47.4083 13.9462 48.5693L14.0841 48.6552C15.0153 49.2185 15.7912 49.672 16.7603 50.0051C17.7155 50.3315 18.9329 50.565 20.6917 50.565H32.7618V54H20.6917C18.6053 54 17.0017 53.7218 15.636 53.2512C14.4617 52.8241 13.3396 52.2664 12.2909 51.5887L12.1253 51.4856C10.3872 50.4311 8.68016 49.3937 4.99359 49.0056C2.35195 48.7239 0 46.6011 0 43.6951V29.9553C0 27.0356 2.3623 25.0365 4.67977 24.4079C7.60764 23.611 10.1079 21.7046 12.0322 19.5646C13.9634 17.4109 15.1842 15.1679 15.6153 13.9347C16.3016 11.9596 16.843 8.64833 17.0913 5.03819V5.03476Z" fill="url(#paint0_angular)"/>
<defs>
<radialGradient id="paint0_angular" cx="0" cy="0" r="1" gradientUnits="userSpaceOnUse" gradientTransform="translate(21.5 27) rotate(90) scale(27 21.5)">
<stop stop-color="#E4CE9F"/>
<stop offset="1" stop-color="#CEA757"/>
</radialGradient>
</defs>
</svg>
