<svg width="48" height="47" viewBox="0 0 48 47" fill="none" xmlns="http://www.w3.org/2000/svg">
<path d="M27.9443 40.1115H41.3148V43.4541H27.9443V40.1115Z" fill="url(#paint0_angular)"/>
<path d="M27.9443 33.4262H48.0001V36.7688H27.9443V33.4262Z" fill="url(#paint1_angular)"/>
<path d="M27.9443 26.741H48.0001V30.0836H27.9443V26.741Z" fill="url(#paint2_angular)"/>
<path d="M32.2045 15.4045L24.6017 0L16.9989 15.4045L0 17.8747L12.3008 29.8663L9.39611 46.7967L21.2591 40.561V36.7839L13.8368 40.6864L15.595 30.4312L15.8925 28.6981L14.634 27.473L7.18329 20.2078L17.4802 18.712L19.2184 18.4596L19.9972 16.8836L24.6017 7.55265L29.2062 16.8836L29.985 18.4596L31.7232 18.712L44.1811 20.5254L44.6574 17.2145L32.2045 15.4045Z" fill="url(#paint3_angular)"/>
<defs>
<radialGradient id="paint0_angular" cx="0" cy="0" r="1" gradientUnits="userSpaceOnUse" gradientTransform="translate(34.6296 41.7828) rotate(90) scale(1.67131 6.68524)">
<stop stop-color="#E4CE9F"/>
<stop offset="1" stop-color="#CEA757"/>
</radialGradient>
<radialGradient id="paint1_angular" cx="0" cy="0" r="1" gradientUnits="userSpaceOnUse" gradientTransform="translate(37.9722 35.0975) rotate(90) scale(1.67131 10.0279)">
<stop stop-color="#E4CE9F"/>
<stop offset="1" stop-color="#CEA757"/>
</radialGradient>
<radialGradient id="paint2_angular" cx="0" cy="0" r="1" gradientUnits="userSpaceOnUse" gradientTransform="translate(37.9722 28.4123) rotate(90) scale(1.67131 10.0279)">
<stop stop-color="#E4CE9F"/>
<stop offset="1" stop-color="#CEA757"/>
</radialGradient>
<radialGradient id="paint3_angular" cx="0" cy="0" r="1" gradientUnits="userSpaceOnUse" gradientTransform="translate(22.3287 23.3984) rotate(90) scale(23.3984 22.3287)">
<stop stop-color="#E4CE9F"/>
<stop offset="1" stop-color="#CEA757"/>
</radialGradient>
</defs>
</svg>
