<svg width="33" height="26" viewBox="0 0 33 26" fill="none" xmlns="http://www.w3.org/2000/svg">
<path fill-rule="evenodd" clip-rule="evenodd" d="M28.8913 7.16736L8.19845 3.71037C7.74111 3.63397 7.25701 3.71333 6.85265 3.93101C6.44828 4.14869 6.15678 4.48685 6.04226 4.8711L2.58799 16.4616C2.47347 16.8458 2.54532 17.2447 2.78773 17.5704C3.03015 17.8962 3.42327 18.1221 3.88061 18.1985L24.5735 21.6555C25.0308 21.7319 25.5149 21.6525 25.9193 21.4348C26.3236 21.2172 26.6152 20.879 26.7297 20.4947L30.1839 8.90425C30.2985 8.52 30.2266 8.12114 29.9842 7.79541C29.7418 7.46968 29.3487 7.24376 28.8913 7.16736ZM8.63024 2.26156C7.71556 2.10875 6.74736 2.26749 5.93863 2.70284C5.1299 3.1382 4.54689 3.81452 4.31786 4.58302L0.86358 16.1735C0.634547 16.942 0.778251 17.7397 1.26308 18.3912C1.7479 19.0427 2.53414 19.4945 3.44882 19.6473L24.1417 23.1043C25.0564 23.2571 26.0246 23.0984 26.8333 22.663C27.642 22.2276 28.225 21.5513 28.4541 20.7828L31.9084 9.19233C32.1374 8.42384 31.9937 7.62611 31.5089 6.97465C31.024 6.32319 30.2378 5.87136 29.3231 5.71855L8.63024 2.26156Z" fill="white"/>
<path d="M22.7009 9.87303C22.7587 9.67731 22.9059 9.50506 23.1101 9.39417C23.3143 9.28328 23.5587 9.24283 23.7897 9.28172L27.2731 9.86828C27.504 9.90717 27.7026 10.0222 27.825 10.1881C27.9474 10.354 27.9837 10.5571 27.9259 10.7529L27.49 12.2288C27.4322 12.4245 27.285 12.5967 27.0808 12.7076C26.8766 12.8185 26.6322 12.859 26.4012 12.8201L22.9178 12.2335C22.6869 12.1946 22.4883 12.0796 22.3659 11.9137C22.2435 11.7478 22.2072 11.5446 22.265 11.3489L22.7009 9.87303ZM3.75831 12.1059L28.1419 16.2118L27.27 19.1635L2.88644 15.0577L3.75831 12.1059Z" fill="white"/>
</svg>
